<svg width="382" height="281" viewBox="0 0 382 281" fill="none" xmlns="http://www.w3.org/2000/svg">
<path d="M71.1882 278.763C110.504 278.763 142.376 273.86 142.376 267.811C142.376 261.763 110.504 256.859 71.1882 256.859C31.872 256.859 0 261.763 0 267.811C0 273.86 31.872 278.763 71.1882 278.763Z" fill="#DFDFEB"/>
<path d="M187.544 280.951C258.57 280.951 316.149 276.047 316.149 269.999C316.149 263.95 258.57 259.047 187.544 259.047C116.517 259.047 58.9385 263.95 58.9385 269.999C58.9385 276.047 116.517 280.951 187.544 280.951Z" fill="#DFDFEB"/>
<path d="M152.557 0.0098032C139.277 0.371603 128.289 11.0085 127.525 24.2718C127.076 32.0706 130.098 39.1673 135.185 44.1742C135.937 44.9139 136.286 45.9684 136.11 47.0083L134.2 58.3119L145.953 51.4638C146.623 51.0738 147.411 50.9305 148.171 51.0839C151.044 51.6634 154.088 51.77 157.225 51.2949C168.836 49.5362 177.894 39.9244 178.965 28.2302C180.39 12.6447 167.942 -0.408947 152.557 0.0098032Z" fill="#D3DDF7"/>
<path d="M152.102 34.7308L152.029 28.5635C152.929 28.3444 153.75 28.059 154.492 27.7059C155.234 27.3535 155.885 26.9461 156.444 26.4831C157.004 26.0215 157.472 25.5043 157.85 24.9321C158.227 24.3606 158.512 23.7462 158.708 23.0896C158.902 22.433 158.999 21.7395 158.999 21.0099C158.999 19.964 158.743 18.9785 158.232 18.0539C157.722 17.1299 156.991 16.3815 156.042 15.8094C155.094 15.2379 153.962 14.9518 152.649 14.9518C151.238 14.9518 149.93 15.341 148.726 16.1196C147.521 16.8988 146.603 18.224 145.971 20.0974L145.314 19.6592C145.874 17.8837 146.811 16.5209 148.124 15.5722C149.438 14.6228 150.934 14.1484 152.613 14.1484C154.049 14.1484 155.307 14.4533 156.39 15.061C157.472 15.6693 158.318 16.4908 158.926 17.5246C159.534 18.5584 159.839 19.7202 159.839 21.0099C159.839 21.9834 159.675 22.8953 159.346 23.7469C159.018 24.5984 158.555 25.377 157.959 26.0825C157.363 26.7887 156.639 27.4024 155.788 27.925C154.936 28.4489 153.976 28.8435 152.905 29.1115L152.833 34.7315L152.102 34.7308ZM151.664 39.329C151.664 39.0128 151.749 38.7515 151.919 38.5445C152.089 38.3381 152.321 38.2343 152.613 38.2343C152.953 38.2343 153.196 38.3321 153.343 38.5264C153.489 38.7214 153.561 38.9887 153.561 39.329C153.561 39.6212 153.482 39.8764 153.324 40.0955C153.166 40.3146 152.928 40.4238 152.612 40.4238C152.295 40.4238 152.059 40.326 151.9 40.1317C151.741 39.9374 151.664 39.6701 151.664 39.329Z" fill="black"/>
<path d="M77.9094 252.398L79.0537 261.023C79.0537 261.023 100.508 270.162 98.5179 270.294C96.528 270.427 65.6973 268.437 65.6973 268.437L67.5116 252.779L77.9094 252.398Z" fill="black"/>
<path d="M71.9323 111.596C71.9323 111.596 70.2225 128.051 68.9408 128.906C67.6584 129.761 65.9492 130.188 65.9492 130.188L68.727 111.383L71.9323 111.596Z" stroke="#424242" stroke-miterlimit="10"/>
<path d="M38.054 100.281C38.054 100.281 29.358 119.917 31.8826 130.857L80.0864 123.504L79.0807 103.105L38.054 100.281Z" fill="black"/>
<path d="M80.087 123.51C80.087 123.51 80.3597 170.621 80.6947 187.035C81.0297 203.448 83.8999 254.138 83.8999 254.138C83.8999 254.138 74.8985 259.1 65.5232 255.09C64.7734 254.769 56.6973 123.07 56.6973 123.07L80.087 123.51Z" fill="black"/>
<path d="M32.6814 125.029L12.3408 254.566C12.3408 254.566 21.2237 262.888 32.4442 255.314L53.1271 149.505L63.171 142.762L64.6671 123.461L32.6814 125.029Z" fill="black"/>
<path d="M27.3406 251.36L29.1924 258.801C29.1924 258.801 42.7271 275.079 40.7325 275.079C38.7379 275.079 16.5127 265.002 16.5127 265.002L19.3622 249.5L27.3406 251.36Z" fill="black"/>
<path d="M40.1108 108.234C40.1108 108.234 27.2924 162.128 17.7637 257.279" stroke="#424242" stroke-miterlimit="10"/>
<path d="M48.9009 114.031C48.9009 114.031 44.4126 125.252 36.7451 125.439" stroke="#424242" stroke-miterlimit="10"/>
<path d="M67.8587 255.86L61.3008 144.352L67.7073 137.633" stroke="#424242" stroke-miterlimit="10"/>
<path d="M67.7736 43.8678C71.1089 43.1851 73.543 42.6953 73.543 42.6953L94.3451 54.0565C94.3806 54.0759 94.4162 54.0954 94.4517 54.1148C101.268 57.8762 104.281 64.2579 104.102 73.2018L105.112 86.1575L93.8393 77.01L84.3099 95.3861L78.2578 117.08C45.9611 128.824 33.416 107.738 33.416 107.738L44.1166 84.5743L48.4388 63.1812C50.4923 52.2033 56.8339 46.1076 67.7736 43.8678Z" fill="#9EC68A"/>
<path d="M242.405 80.4654C242.405 80.4654 239.146 94.0986 220.703 110.733C220.703 110.733 218.943 108.243 222.88 98.6486C226.818 89.0548 241.632 77.0638 242.405 80.4654Z" fill="#7E9E6E"/>
<path d="M242.404 80.4688C242.404 80.4688 226.119 90.6092 220.702 110.736C220.702 110.736 219.458 117.678 221.466 123.89" stroke="black" stroke-miterlimit="10" stroke-linecap="round"/>
<path d="M199.835 88.9197C199.835 88.9197 204.416 85.8893 197.43 77.1398C190.793 68.8278 183.686 61.301 169.077 57.7734C169.077 57.7734 172.254 78.0704 181.575 83.4579C190.896 88.8447 199.835 88.9197 199.835 88.9197Z" fill="#7E9E6E"/>
<path d="M163.032 101.332C163.032 101.332 178.231 105.682 204.933 98.634C204.933 98.634 203.486 95.8274 191.862 94.1698C180.239 92.5122 160.133 98.8913 163.032 101.332Z" fill="#7E9E6E"/>
<path d="M163.032 101.332C163.032 101.332 182.153 92.7269 204.933 98.6336C204.933 98.6336 207.267 99.3793 209.476 102.761" stroke="black" stroke-miterlimit="10" stroke-linecap="round"/>
<path d="M174.913 116.119C174.913 116.119 190.712 128.034 217.414 120.986C217.414 120.986 212.92 111.462 201.296 109.805C189.673 108.147 172.015 113.678 174.913 116.119Z" fill="#7E9E6E"/>
<path d="M174.913 116.121C174.913 116.121 193.224 108.966 217.414 120.988C217.414 120.988 220.254 122.477 222.462 125.858" stroke="black" stroke-miterlimit="10" stroke-linecap="round"/>
<path d="M234.135 66.8288C234.135 66.8288 239.04 66.5575 226.456 76.7857C214.573 86.4431 215.994 86.6159 215.994 86.6159C215.994 86.6159 221.246 71.3614 234.135 66.8288Z" fill="black"/>
<path d="M207.498 91.3481C207.498 91.3481 211.044 92.9829 217.988 87.3851C224.931 81.7872 228.236 68.5313 234.135 66.8281C234.135 66.8281 219.368 70.5741 207.498 91.3481Z" fill="#7E9E6E"/>
<path d="M228.388 138.962C221.946 123.588 212.761 106.003 199.835 88.9197C199.835 88.9197 196.693 84.2069 185.521 71.7965C174.348 59.3861 169.078 57.7734 169.078 57.7734" stroke="black" stroke-miterlimit="10" stroke-linecap="round"/>
<path d="M232.381 67.4375C232.381 67.4375 218.229 72.5623 207.498 91.3525C204.898 95.9045 207.409 99.7998 209.476 102.767" stroke="black" stroke-miterlimit="10" stroke-linecap="round"/>
<path d="M375.66 244.5C375.66 244.5 361.935 248.619 339.032 233.777C339.032 233.777 340.536 229.79 350.895 229.148C361.253 228.507 378.41 241.293 375.66 244.5Z" fill="#7E9E6E"/>
<path d="M375.146 243.495C375.146 243.495 360.069 231.632 339.3 233.388C339.3 233.388 332.349 234.58 327.191 238.583" stroke="black" stroke-miterlimit="10" stroke-linecap="round"/>
<path d="M345.785 213.911C345.785 213.911 350.193 217.188 356.044 207.641C361.601 198.573 366.26 189.328 364.607 174.391C364.607 174.391 346.601 184.284 344.708 194.882C342.813 205.481 345.785 213.911 345.785 213.911Z" fill="#7E9E6E"/>
<path d="M381.187 230.967C381.187 230.967 384.068 234.946 368.659 229.895C354.109 225.126 354.732 226.414 354.732 226.414C354.732 226.414 370.403 222.579 381.187 230.967Z" fill="black"/>
<path d="M346.154 221.824C346.154 221.824 346.697 225.69 355.162 228.502C363.627 231.314 376.563 226.922 381.187 230.963C381.187 230.963 370.047 220.57 346.154 221.824Z" fill="#7E9E6E"/>
<path d="M308.444 257.789C320.709 246.5 334.119 231.88 345.785 213.911C345.785 213.911 349.147 209.353 357.015 194.624C364.884 179.895 364.606 174.391 364.606 174.391" stroke="black" stroke-miterlimit="10" stroke-linecap="round"/>
<path d="M379.728 229.816C379.728 229.816 367.762 220.686 346.154 221.825C340.919 222.101 338.548 224.65 334.624 229.544" stroke="black" stroke-miterlimit="10" stroke-linecap="round"/>
<path d="M232.931 107.906C237.131 107.906 241.198 106.432 244.422 103.741L253.37 96.275C256.59 93.5883 260.415 92.1484 264.333 92.1484H308.74C312.769 92.1484 316.036 95.4154 316.036 99.4447V107.906V260.207C316.036 267.16 310.399 272.798 303.445 272.798H82.0828C76.6745 272.798 72.29 268.413 72.29 263.005V117.699C72.29 112.291 76.6745 107.906 82.0828 107.906H232.931Z" fill="#333969"/>
<path d="M72.29 263.827C72.29 263.827 87.355 235.568 88.8618 232.322L130.034 148.444C131.069 146.215 133.303 144.789 135.76 144.789H288.76C294.323 144.789 302.367 141.873 306.638 138.309L312.812 133.158C316.032 130.471 319.857 129.031 323.775 129.031H366.035C370.533 129.031 373.588 133.601 371.87 137.758L320.768 261.352C317.904 268.28 311.146 272.799 303.65 272.799H75.0531C73.563 272.799 72.1868 271.522 72.1875 270.032L72.29 263.827Z" fill="#7584F1"/>
<path d="M134.523 152.766L74.1074 270.208" stroke="black" stroke-miterlimit="10" stroke-linejoin="round"/>
<path d="M159.417 173.003H211.459C212.878 173.003 214.199 172.289 214.961 171.11C216.719 168.389 214.734 164.828 211.459 164.828H159.417C157.998 164.828 156.677 165.542 155.916 166.721C154.157 169.442 156.142 173.003 159.417 173.003Z" stroke="black" stroke-miterlimit="10" stroke-linejoin="round"/>
<path d="M256.768 213.367L216.248 237.507" stroke="black" stroke-miterlimit="10" stroke-linecap="round" stroke-linejoin="round"/>
<path d="M223.639 212.203L249.099 237.652" stroke="black" stroke-miterlimit="10" stroke-linecap="round" stroke-linejoin="round"/>
<path d="M243.138 247.443C259.356 242.957 269.755 229.388 266.366 217.135C262.977 204.883 247.082 198.587 230.865 203.073C214.647 207.559 204.248 221.128 207.637 233.381C211.026 245.633 226.92 251.929 243.138 247.443Z" stroke="black" stroke-miterlimit="10" stroke-linecap="round" stroke-linejoin="round"/>
<path d="M82.6292 98.6328L90.1432 107.071C90.1432 107.071 83.0941 115.388 75.9345 110.462L74.7861 108.814L82.6292 98.6328Z" fill="#9EC68A"/>
<path d="M65.1689 48.2891C65.1689 48.2891 75.4642 50.9865 67.3639 80.7485" stroke="black" stroke-miterlimit="10" stroke-linecap="round"/>
<path d="M83.2599 99.518C77.7016 93.2729 70.9078 85.4259 66.8945 80.0156" stroke="black" stroke-miterlimit="10" stroke-linecap="round"/>
<path d="M75.9341 110.468C70.5996 104.998 63.3911 97.2136 60.2448 94.3286C55.3417 89.8322 50.253 82.5975 51.912 73.3033L51.713 65.8516" stroke="black" stroke-miterlimit="10" stroke-linecap="round"/>
<path d="M107.957 106.473C101.387 102.924 98.361 98.529 95.8277 95.2714C89.7843 87.5014 87.643 86.5393 89.4138 77.4957L89.5109 68.0312L102.622 82.2205C107.629 88.8622 119.172 100.769 123.436 105.46C123.436 105.46 118.43 112.132 107.957 106.473Z" fill="#9EC68A"/>
<path d="M81.2173 104.077C81.8217 103.911 82.4481 103.861 83.0712 103.926C85.3197 104.164 91.345 104.797 92.0251 104.805C92.8626 104.816 93.5433 103.566 95.3403 108.098C97.1372 112.63 96.8149 113.052 96.8042 113.645C96.7942 114.237 95.4903 122.939 94.09 121.632C92.6897 120.325 92.878 119.564 92.878 119.564C92.878 119.564 92.1229 123.098 91.7256 122.962C91.3283 122.826 89.8563 122.822 90.0921 120.326C90.0921 120.326 89.2895 122.752 88.462 122.148C87.6346 121.545 87.8202 118.923 87.8202 118.923C87.8202 118.923 86.9344 120.891 85.9227 119.577C84.9117 118.263 85.6648 115.219 85.6648 115.219L84.8172 112.957L82.9834 112.165C82.9834 112.165 76.8107 113.779 75.7488 109.495C74.9334 106.202 79.1986 104.629 81.2173 104.077Z" fill="#DB9C7F"/>
<path d="M93.633 109.633L94.7921 114.504L92.8779 119.564" stroke="black" stroke-miterlimit="10" stroke-linecap="round"/>
<path d="M90.657 109.453L92.1584 114.445L90.0908 120.326" stroke="black" stroke-miterlimit="10" stroke-linecap="round"/>
<path d="M88.0469 110.008L88.9212 114.808L87.9209 118.403" stroke="black" stroke-miterlimit="10" stroke-linecap="round"/>
<path d="M83.0064 17.4688C80.8162 19.5189 80.784 22.012 80.784 22.012C80.784 22.012 80.0309 21.0821 79.0996 20.7832" stroke="black" stroke-miterlimit="10" stroke-linecap="round"/>
<path d="M114.294 102.684C116.377 102.181 118.573 102.521 120.48 103.498C122.989 104.784 126.908 106.775 127.42 106.928C128.179 107.154 128.674 106.744 128.774 111.354C128.814 113.176 128.808 114.433 128.646 114.97C128.483 115.506 124.801 121.008 123.592 120.233C123.559 120.212 123.536 120.194 123.506 120.174C123.199 120.586 122.789 121.092 122.385 121.436C122.083 121.694 120.401 121.659 121.262 119.45C121.262 119.45 120.096 122.003 119.189 121.663C118.008 121.22 118.2 120.084 118.63 119.123C118.082 119.864 117.402 120.468 116.919 119.827C115.971 118.568 118.119 114.093 118.119 114.093L118.369 111.383L116.73 109.917C116.73 109.917 110.873 110.06 111.015 105.888C111.08 103.974 112.632 103.085 114.294 102.684Z" fill="#DB9C7F"/>
<path d="M127.149 109.664L127.075 114.607L123.469 119.854" stroke="black" stroke-miterlimit="10" stroke-linecap="round"/>
<path d="M124.589 109.703L124.307 114.798L121.262 119.448" stroke="black" stroke-miterlimit="10" stroke-linecap="round"/>
<path d="M121.989 109.836L121.624 114.127L119.025 118.437" stroke="black" stroke-miterlimit="10" stroke-linecap="round"/>
<path d="M114.577 108.694C114.577 108.694 115.165 113.117 113.737 114.088C112.31 115.059 110.008 105.913 111.591 105.796C113.911 105.624 114.577 108.694 114.577 108.694Z" fill="#DB9C7F"/>
<path d="M116.522 108.055C116.522 108.055 115.103 108.282 114.697 109.949" stroke="black" stroke-miterlimit="10" stroke-linecap="round"/>
<path d="M88.9717 86.6479L95.8727 77.6538C102.181 69.3076 97.9771 60.4844 97.9771 60.4844" stroke="black" stroke-miterlimit="10" stroke-linecap="round"/>
<path d="M105.113 86.1539C105.113 86.1539 101.047 80.5172 100.123 83.0123" stroke="black" stroke-miterlimit="10" stroke-linecap="round"/>
<path d="M106.682 39.2466L105.512 39" stroke="white" stroke-miterlimit="10"/>
<path d="M82.2129 38.1562L73.5424 42.6935C73.5424 42.6935 73.3146 52.9833 83.0518 60.8043L87.4242 56.5558L91.8308 60.9637C91.8308 60.9637 93.5071 59.6472 94.0049 53.6728L93.219 46.4194L82.2129 38.1562Z" fill="white"/>
<path d="M93.2192 46.4194L82.2125 38.1562L73.542 42.6935" stroke="black" stroke-miterlimit="10" stroke-linecap="round" stroke-linejoin="round"/>
<path d="M79.6953 39.7134C79.6953 39.7134 82.376 55.3874 86.3451 56.4982C90.3135 57.6084 92.7891 49.7708 92.7891 49.7708L85.1042 28.375L79.6953 39.7134Z" fill="#DB9C7F"/>
<path d="M94.2634 51.6576L94.311 53.6059C94.3471 53.626 94.2319 54.2076 92.2996 54.4294C83.81 54.1761 83.138 44.6232 82.4473 37.0234C82.4473 37.0234 95.0473 50.1407 94.2634 51.6576Z" fill="black"/>
<path d="M106.144 30.3501C106.144 30.3501 108.325 50.217 96.6713 53.445C85.0174 56.6731 82.2255 37.6685 82.6275 31.0958C83.0295 24.5231 86.3111 21.277 94.4791 20.9828C106.563 20.5473 106.144 30.3501 106.144 30.3501Z" fill="#DB9C7F"/>
<path d="M88.6975 24.9653C88.6975 24.9653 88.4791 29.1407 85.708 29.9749L83.7154 36.1154C83.7154 36.1154 82.0458 33.3865 80.2113 32.4197C80.2113 32.4197 78.1852 24.3107 80.7359 21.0887C83.2866 17.8666 86.8323 16.2332 95.4103 16.9467C101.939 17.4894 105.759 22.1211 107.007 24.4775C107.411 25.2413 108.393 27.388 106.098 29.4764C106.098 29.4764 106.129 27.8965 104.789 26.048C104.789 26.048 101.663 32.4391 88.6975 24.9653Z" fill="black"/>
<path d="M77.5244 37.1646C78.2433 39.7863 80.3056 41.5189 82.1306 41.0352C83.9557 40.5514 84.8535 38.0342 84.1346 35.4125C83.4164 32.7908 81.3534 31.0582 79.5284 31.5419C77.7026 32.0263 76.8055 34.5435 77.5244 37.1646Z" fill="#DB9C7F"/>
<path d="M94.3276 38.0432C94.2941 38.7186 94.615 39.2834 95.0445 39.3055C95.474 39.3276 95.8485 38.7976 95.8813 38.1223C95.9148 37.4469 95.5939 36.8821 95.1644 36.86C94.7356 36.8386 94.3604 37.3685 94.3276 38.0432Z" fill="black"/>
<path d="M103.316 38.5972C103.25 39.2297 103.509 39.7764 103.895 39.8173C104.281 39.8581 104.648 39.3791 104.714 38.7459C104.781 38.1135 104.521 37.5667 104.135 37.5259C103.749 37.485 103.382 37.9647 103.316 38.5972Z" fill="black"/>
<path d="M91.7607 32.6956C91.7607 32.6956 94.8474 33.3569 95.0531 30.4297" stroke="black" stroke-miterlimit="10" stroke-linecap="round"/>
<path d="M102.221 32.4531C102.221 32.4531 103.007 35.174 105.327 33.5988" stroke="black" stroke-miterlimit="10" stroke-linecap="round"/>
<path d="M93.7874 48.9267C93.7874 48.9267 92.7697 44.7801 89.6113 47.1573L93.7874 48.9267Z" fill="black"/>
<path d="M79.3564 34.8882C79.3564 34.8882 81.4093 33.1221 82.5309 36.3515C82.5309 36.3515 81.3316 37.6245 82.0887 38.6235C82.0887 38.6235 80.9062 38.8915 80.3233 37.8489" stroke="black" stroke-miterlimit="10" stroke-linecap="round" stroke-linejoin="round"/>
<path d="M80.2451 36.1229C80.2451 36.1229 80.3597 35.4053 81.1563 34.5859" stroke="black" stroke-miterlimit="10" stroke-linecap="round" stroke-linejoin="round"/>
<path d="M101.534 38.4981C101.534 40.4169 102.713 41.9727 104.169 41.9727C105.624 41.9727 106.803 40.4169 106.803 38.4981C106.803 36.5792 105.624 35.0234 104.169 35.0234C102.713 35.0234 101.534 36.5792 101.534 38.4981Z" stroke="white" stroke-miterlimit="10"/>
<path d="M91.6738 38.0254C91.6738 40.0589 93.1753 41.707 95.0272 41.707C96.8791 41.707 98.3805 40.0589 98.3805 38.0254C98.3805 35.992 96.8791 34.3438 95.0272 34.3438C93.1753 34.3431 91.6738 35.992 91.6738 38.0254Z" stroke="white" stroke-miterlimit="10"/>
<path d="M101.652 39.504C101.652 39.504 100.837 36.0434 98.1914 39.2587" stroke="white" stroke-miterlimit="10"/>
<path d="M91.7439 36.6304L83.9512 34.875" stroke="white" stroke-miterlimit="10"/>
<path d="M101.979 41.0312C102.365 41.521 102.445 42.1046 102.25 42.7357C102.058 43.3588 101.423 43.7381 100.779 43.7247C100.481 43.7186 100.195 43.6382 99.913 43.5498C99.7897 43.5116 99.5458 43.3796 99.4132 43.4379C98.7706 43.722 98.0223 43.1612 98.2367 42.723" stroke="black" stroke-miterlimit="10" stroke-linecap="round"/>
</svg>
