<svg width="1000" height="1000" viewBox="0 0 1000 1000" fill="none" xmlns="http://www.w3.org/2000/svg">
<rect x="2" y="2" width="996" height="996" rx="66" fill="white" fill-opacity="0.1"/>
<rect x="2" y="2" width="996" height="996" rx="66" stroke="url(#paint0_linear_3627_39661)" stroke-width="4"/>
<g clip-path="url(#clip0_3627_39661)">
<path fill-rule="evenodd" clip-rule="evenodd" d="M844.861 480.41C844.14 480.555 843.42 482.141 843.42 483.006C843.276 488.773 843.131 504.058 843.131 514.439C843.131 514.728 843.563 515.304 843.996 515.304C846.159 515.448 851.35 515.593 855.819 515.593C862.02 515.593 865.624 514.728 867.644 513.863C872.834 511.268 875.285 505.643 875.285 499.443C875.285 485.457 865.48 480.122 850.917 480.122C849.908 479.979 847.025 479.979 844.861 480.41ZM882.063 544.864C882.063 530.589 871.536 522.658 852.503 522.658C851.638 522.658 845.582 522.514 844.14 522.802C843.707 522.947 843.131 523.235 843.131 523.668C843.131 533.905 842.987 550.199 843.42 556.543C843.707 559.283 845.727 563.176 848.178 564.329C850.772 565.772 856.685 566.059 860.722 566.059C872.113 566.059 882.063 559.716 882.063 544.864ZM815.447 472.48C816.888 472.48 821.214 472.912 832.317 472.912C842.842 472.912 851.205 472.625 861.444 472.625C873.987 472.625 891.29 477.094 891.29 495.838C891.29 505.067 884.801 512.421 876.294 516.026C875.862 516.17 875.862 516.458 876.294 516.602C888.406 519.631 899.077 527.129 899.077 541.259C899.077 555.102 890.426 563.896 877.881 569.376C870.238 572.692 860.722 573.846 851.061 573.846C843.707 573.846 823.954 572.981 812.996 573.27C811.842 572.837 814.005 567.645 815.014 566.781C817.609 566.636 819.628 566.492 822.368 565.627C826.261 564.618 826.693 563.465 827.27 557.553C827.559 552.506 827.559 534.625 827.559 521.937C827.559 504.49 827.703 492.667 827.559 486.899C827.415 482.43 825.828 480.988 822.656 480.122C820.205 479.69 816.167 479.113 812.851 478.681C812.129 477.959 814.581 473.057 815.447 472.48ZM732.248 562.167C735.71 564.905 742.486 566.059 748.542 566.059C756.329 566.059 764.115 564.618 771.613 557.84C779.255 550.92 784.59 540.25 784.59 523.235C784.59 506.941 778.389 493.676 765.701 485.89C758.492 481.419 749.263 479.546 738.593 479.546C735.421 479.546 732.393 479.69 730.519 480.555C730.086 480.843 729.077 482.141 729.077 482.862C728.788 485.746 728.788 507.95 728.788 520.928C728.788 534.338 728.788 553.082 729.077 555.245C729.077 557.409 730.086 560.725 732.248 562.167ZM699.517 472.48C702.257 472.48 712.782 472.912 717.829 472.912C726.914 472.912 733.402 472.48 750.561 472.48C764.979 472.48 777.091 476.374 785.743 483.726C796.268 492.811 801.748 505.356 801.748 520.64C801.748 542.412 791.799 554.957 781.85 562.167C771.902 569.521 758.923 573.846 740.468 573.846C730.663 573.846 713.793 573.557 699.806 573.413H699.661C698.941 572.116 700.815 567.069 701.968 566.925C705.717 566.492 706.726 566.348 708.602 565.627C711.629 564.474 712.206 562.887 712.639 557.553C713.071 547.604 712.927 535.636 712.927 522.082C712.927 512.421 713.071 493.531 712.782 487.475C712.351 482.43 710.188 481.132 705.862 480.266C703.699 479.834 700.815 479.257 696.778 478.825C696.201 477.815 698.797 473.345 699.517 472.48Z" fill="#E5E5E5"/>
<path fill-rule="evenodd" clip-rule="evenodd" d="M525.051 567.787C521.446 567.354 518.85 566.778 515.677 565.336C515.245 565.047 514.524 563.607 514.524 563.029C514.235 557.982 514.235 543.563 514.235 533.903C514.235 526.116 512.939 519.339 509.621 514.581C505.728 509.101 500.105 505.93 492.895 505.93C486.551 505.93 478.043 510.256 470.978 516.312C470.834 516.455 469.681 517.466 469.825 515.879C469.825 514.293 470.114 511.121 470.258 508.958C470.402 506.939 469.249 505.93 469.249 505.93C464.634 508.237 451.657 511.265 446.899 511.697C443.438 512.419 442.574 515.735 446.178 516.888H446.323C450.215 518.042 452.81 519.339 454.829 520.637C456.271 521.791 456.126 523.377 456.126 524.675C456.271 535.489 456.271 552.071 455.839 561.155C455.695 564.76 454.686 566.057 452.09 566.634L452.377 566.49C450.359 566.923 448.773 567.354 446.321 567.643C445.457 568.508 445.457 573.123 446.321 574.132C447.908 574.132 456.271 573.699 463.193 573.699C472.709 573.699 477.612 574.132 480.063 574.132C481.072 572.979 481.361 568.652 480.783 567.643C478.043 567.499 476.025 567.211 474.151 566.634C471.556 566.057 470.834 564.76 470.69 561.731C470.402 554.089 470.402 537.94 470.402 526.982C470.402 523.953 471.267 522.511 472.132 521.646C475.448 518.763 480.783 516.744 485.542 516.744C490.155 516.744 493.184 518.186 495.491 520.061C498.663 522.655 499.672 526.405 500.105 529.145C500.825 535.345 500.538 547.601 500.538 558.271C500.538 564.038 500.105 565.48 497.942 566.201C496.933 566.634 494.338 567.211 491.309 567.499C490.3 568.508 490.588 572.979 491.309 573.988C495.491 573.988 500.394 573.555 507.603 573.555C516.542 573.555 522.311 573.988 524.617 573.988C525.338 573.123 525.628 568.941 525.051 567.787ZM564.991 512.707C557.349 512.707 552.59 518.619 552.59 527.847C552.59 537.219 556.771 548.033 568.596 548.033C570.614 548.033 574.363 547.168 576.093 545.15C578.833 542.554 580.708 537.363 580.708 531.884C580.708 519.917 574.795 512.707 564.991 512.707ZM563.981 576.439C561.098 576.439 559.078 577.304 557.782 578.025C551.724 581.918 548.986 585.667 548.986 590.137C548.986 594.318 550.571 597.634 554.033 600.519C558.213 604.123 563.981 605.854 571.335 605.854C586.042 605.854 592.531 597.923 592.531 590.137C592.531 584.658 589.791 581.053 584.168 579.035C580.13 577.304 572.777 576.439 563.981 576.439ZM564.991 613.928C556.195 613.928 549.851 612.053 544.372 607.872C539.036 603.835 536.729 597.779 536.729 593.598C536.729 592.444 537.018 589.271 539.614 586.388C541.199 584.658 544.659 581.341 552.879 575.719C553.167 575.574 553.311 575.43 553.311 575.141C553.311 574.852 553.022 574.564 552.735 574.421C545.957 571.825 543.939 567.643 543.361 565.336V565.047C543.218 564.183 542.93 563.318 544.228 562.452C545.237 561.731 546.679 560.867 548.264 559.858C550.715 558.415 553.311 556.829 554.897 555.531C555.186 555.242 555.186 554.955 555.186 554.666C555.186 554.378 554.897 554.089 554.609 553.946C544.516 550.629 539.469 543.13 539.469 531.884C539.469 524.531 542.785 517.897 548.697 513.717C552.735 510.544 562.827 506.651 569.461 506.651H569.894C576.67 506.794 580.419 508.237 585.753 510.112C588.638 511.121 591.378 511.553 595.127 511.553C600.75 511.553 603.201 509.823 605.219 507.805C605.363 508.092 605.652 508.814 605.797 510.688C605.941 512.563 605.363 515.302 603.921 517.321C602.768 518.906 600.174 520.061 597.578 520.061H596.856C594.261 519.773 593.107 519.484 593.107 519.484L592.531 519.773C592.387 520.061 592.531 520.349 592.675 520.782L592.82 521.07C593.107 522.368 593.685 526.26 593.685 527.271C593.685 539.094 588.926 544.284 583.88 548.177C578.977 551.782 573.354 554.089 567.009 554.666C566.865 554.666 566.289 554.666 564.991 554.811C564.269 554.811 563.26 554.955 563.116 554.955H562.972C561.818 555.242 558.935 556.684 558.935 559.136C558.935 561.298 560.233 563.894 566.432 564.327C567.73 564.471 569.028 564.471 570.47 564.616C578.688 565.192 588.926 565.914 593.685 567.499C600.317 569.95 604.499 575.862 604.499 582.928C604.499 593.598 596.856 603.547 584.168 609.746C577.968 612.486 571.768 613.928 564.991 613.928ZM647.179 513.428C644.151 513.428 641.411 514.148 639.393 515.59C633.77 519.051 630.885 525.973 630.885 536.065C630.885 554.955 640.402 568.22 653.956 568.22C657.994 568.22 661.165 567.067 663.905 564.76C668.086 561.298 670.25 554.378 670.25 544.717C670.25 525.973 660.877 513.428 647.179 513.428ZM649.775 575.141C625.262 575.141 616.466 557.118 616.466 540.247C616.466 528.424 621.225 519.339 630.741 512.85C637.519 508.67 645.593 506.363 652.802 506.363C671.546 506.363 684.669 519.773 684.669 539.094C684.669 552.215 679.478 562.596 669.528 568.941C664.77 572.112 656.553 575.141 649.775 575.141ZM392.828 513.428C389.799 513.428 387.061 514.148 385.041 515.59C379.418 519.051 376.534 525.973 376.534 536.065C376.534 554.955 386.05 568.22 399.604 568.22C403.642 568.22 406.814 567.067 409.554 564.76C413.735 561.298 415.898 554.378 415.898 544.717C415.898 525.973 406.669 513.428 392.828 513.428ZM395.424 575.141C370.911 575.141 362.115 557.118 362.115 540.247C362.115 528.424 366.873 519.339 376.389 512.85C383.167 508.67 391.241 506.363 398.451 506.363C417.196 506.363 430.317 519.773 430.317 539.094C430.317 552.215 425.126 562.596 415.177 568.941C410.563 572.112 402.344 575.141 395.424 575.141ZM230.614 573.699C230.325 573.267 230.037 571.969 230.181 570.383C230.181 569.23 230.47 568.508 230.614 568.22C233.641 567.787 235.228 567.354 236.957 566.923C239.842 566.201 240.995 564.616 241.14 561.011C241.573 552.359 241.573 535.921 241.428 524.531V524.242C241.428 522.944 241.428 521.358 239.842 520.204C237.535 518.763 234.795 517.466 231.19 516.455C229.892 516.023 229.028 515.302 229.172 514.437C229.172 513.572 230.037 512.563 231.912 512.274C236.67 511.841 249.069 508.814 253.972 506.651C254.261 506.939 254.694 507.805 254.694 508.958L254.549 510.544C254.405 512.13 254.261 514.005 254.261 515.879C254.261 516.455 254.838 516.888 255.414 516.888C255.703 516.888 255.992 516.744 256.28 516.6C265.508 509.39 273.871 506.794 278.196 506.794C285.262 506.794 290.741 510.112 294.923 517.033C295.21 517.466 295.499 517.609 295.932 517.609C296.221 517.609 296.653 517.466 296.797 517.177C305.304 510.688 313.811 506.794 319.434 506.794C332.844 506.794 340.775 516.744 340.775 533.614C340.775 538.372 340.775 544.573 340.631 550.197C340.631 555.242 340.487 559.858 340.487 563.174C340.487 563.894 341.496 566.201 343.082 566.634C345.1 567.643 347.84 568.076 351.445 568.652H351.589C351.878 569.661 351.301 573.41 350.725 574.132C349.859 574.132 348.561 574.132 347.12 573.988C344.38 573.843 340.487 573.699 336.161 573.699C327.221 573.699 322.607 573.843 318.137 574.132C317.849 572.979 317.705 569.518 318.137 568.652C320.732 568.22 322.03 567.787 323.616 567.354C326.501 566.49 327.221 565.192 327.366 561.443C327.366 558.704 327.942 535.345 327.077 529.721C326.212 523.953 321.886 517.177 312.369 517.177C308.765 517.177 303.142 518.619 297.662 522.8C297.374 523.089 297.086 523.809 297.086 524.242V524.386C297.662 527.414 297.662 530.875 297.662 536.21V545.582C297.662 552.071 297.517 558.127 297.662 562.74C297.662 565.914 299.537 566.634 301.123 567.211C301.988 567.354 302.564 567.499 303.286 567.643C304.584 567.932 305.882 568.22 307.9 568.652C308.188 569.23 308.188 571.103 307.755 572.69C307.611 573.555 307.322 573.988 307.179 574.132C302.277 573.988 297.23 573.843 289.876 573.843C287.714 573.843 283.965 573.988 280.792 573.988C278.196 573.988 275.745 574.132 274.304 574.132C274.159 573.843 273.871 572.834 273.871 571.248C273.871 569.95 274.159 568.941 274.448 568.652C275.169 568.508 275.745 568.365 276.466 568.365C278.196 568.076 279.638 567.787 281.08 567.499C283.531 566.778 284.396 565.48 284.541 562.309C284.974 555.099 285.405 534.48 284.396 529.289C282.667 520.926 277.909 516.744 270.266 516.744C265.797 516.744 260.172 518.906 255.558 522.368C254.838 522.944 254.261 524.386 254.261 525.684V534.191C254.261 544.573 254.261 557.551 254.405 563.174C254.549 564.903 255.125 566.923 258.443 567.643C259.163 567.787 260.317 568.076 261.759 568.22L264.354 568.652C264.643 569.518 264.499 572.979 263.921 574.132C262.479 574.132 260.75 573.988 258.73 573.988C255.703 573.843 251.809 573.699 247.484 573.699C242.437 573.699 238.833 573.843 235.948 573.988C233.93 573.699 232.344 573.699 230.614 573.699Z" fill="#949494"/>
<path fill-rule="evenodd" clip-rule="evenodd" d="M154.772 608.306L148.86 606.286C148.86 606.286 149.582 576.15 138.768 573.988C131.558 565.625 139.921 219.28 165.875 572.834C165.875 572.834 156.936 577.304 155.349 584.946C153.618 592.445 154.772 608.306 154.772 608.306Z" fill="white"/>
<path fill-rule="evenodd" clip-rule="evenodd" d="M154.772 608.306L148.86 606.286C148.86 606.286 149.582 576.15 138.768 573.988C131.558 565.625 139.921 219.28 165.875 572.834C165.875 572.834 156.936 577.304 155.349 584.946C153.618 592.445 154.772 608.306 154.772 608.306Z" fill="#A6A385"/>
<path fill-rule="evenodd" clip-rule="evenodd" d="M157.944 579.181C157.944 579.181 209.708 545.152 197.596 474.354C185.917 422.879 158.376 406.009 155.348 399.52C152.032 394.906 148.859 386.832 148.859 386.832L151.023 530.012C151.023 530.156 146.552 573.846 157.944 579.181Z" fill="white"/>
<path fill-rule="evenodd" clip-rule="evenodd" d="M157.944 579.181C157.944 579.181 209.708 545.152 197.596 474.354C185.917 422.879 158.376 406.009 155.348 399.52C152.032 394.906 148.859 386.832 148.859 386.832L151.023 530.012C151.023 530.156 146.552 573.846 157.944 579.181Z" fill="#499D4A"/>
<path fill-rule="evenodd" clip-rule="evenodd" d="M145.831 581.055C145.831 581.055 97.2392 547.89 100.124 489.494C102.862 431.097 137.18 402.404 143.812 397.212C148.138 392.599 148.283 390.868 148.571 386.254C151.599 392.743 151.023 483.294 151.454 493.964C152.752 535.058 149.147 573.269 145.831 581.055Z" fill="white"/>
<path fill-rule="evenodd" clip-rule="evenodd" d="M145.831 581.055C145.831 581.055 97.2392 547.89 100.124 489.494C102.862 431.097 137.18 402.404 143.812 397.212C148.138 392.599 148.283 390.868 148.571 386.254C151.599 392.743 151.023 483.294 151.454 493.964C152.752 535.058 149.147 573.269 145.831 581.055Z" fill="#58AA50"/>
</g>
<defs>
<linearGradient id="paint0_linear_3627_39661" x1="32" y1="-28" x2="912" y2="1000" gradientUnits="userSpaceOnUse">
<stop stop-color="#5178ED"/>
<stop offset="1" stop-color="#2E4487"/>
</linearGradient>
<clipPath id="clip0_3627_39661">
<rect width="800" height="800" fill="white" transform="translate(100 100)"/>
</clipPath>
</defs>
</svg>
