<svg width="1000" height="1000" viewBox="0 0 1000 1000" fill="none" xmlns="http://www.w3.org/2000/svg">
<rect x="2" y="2" width="996" height="996" rx="66" fill="white" fill-opacity="0.1"/>
<rect x="2" y="2" width="996" height="996" rx="66" stroke="url(#paint0_linear_3627_39636)" stroke-width="4"/>
<path d="M693.725 850.034C690.75 851.609 691 852.109 693.85 850.659C694.775 850.284 695.55 849.759 696.225 849.134C696.225 848.609 696.225 848.609 693.725 850.034ZM699.725 846.784C698.3 847.959 698.3 847.959 700 847.184C700.9 846.659 701.7 846.159 701.7 846.009C701.7 845.334 701.3 845.484 699.725 846.784ZM703.625 844.434C702.2 845.609 702.2 845.609 703.9 844.834C704.825 844.309 705.6 843.759 705.6 843.634C705.6 843.009 705.2 843.134 703.625 844.434ZM707.575 842.109C706.15 843.284 706.15 843.284 707.8 842.484C708.725 841.984 709.5 841.459 709.5 841.309C709.5 840.684 709.1 840.809 707.575 842.109ZM712.9 838.584C710.175 840.409 709.225 841.584 711.725 840.284C713.4 839.259 716.25 837.009 715.75 837.009C714.675 837.409 713.775 838.084 712.875 838.584H712.9ZM473.825 100.184C472 100.309 466.525 100.809 461.725 101.209C348.025 111.509 241.65 172.709 174.225 266.984C136.95 318.659 112.75 378.684 103.625 441.709C100.4 463.709 100 470.209 100 500.034C100 529.834 100.4 536.234 103.625 558.234C125.4 708.509 232.3 834.659 377.2 881.409C403.275 889.734 430.6 895.484 461.725 899.009C473.825 900.309 526.15 900.309 538.25 899.009C592.05 893.009 637.475 879.734 682.425 856.809C689.325 853.309 690.625 852.384 689.7 851.609C667.7 822.584 646.1 793.534 624.475 764.234L560.55 677.909L480.475 559.284C453.775 519.584 426.975 479.984 399.75 440.684C399.475 440.684 399.125 493.409 398.975 557.709C398.7 670.334 398.7 674.909 397.275 677.509C395.85 680.634 393.5 683.234 390.375 684.684C387.9 685.859 385.675 686.109 373.85 686.109H360.325L356.8 683.909C354.6 682.484 352.775 680.509 351.6 678.184L349.9 674.659L350.025 517.884L350.3 361.109L352.775 357.984C354.35 356.059 356.3 354.484 358.5 353.309C361.775 351.734 363.075 351.484 376.6 351.484C392.475 351.484 395.1 352.109 399.275 356.684C431.675 404.984 463.975 453.409 495.75 501.984C547.725 580.784 618.675 688.309 653.55 741.059L716.975 837.034L720.1 834.959C750.575 814.634 778.3 790.434 802.225 762.834C852.625 705.134 885.325 634.159 896.4 558.409C899.625 536.409 900.025 529.884 900.025 500.084C900.025 470.259 899.625 463.884 896.4 441.884C874.625 291.609 767.725 165.459 622.825 118.684C595.725 110.109 567.85 104.259 539.625 101.259C532.05 100.484 480.35 99.5588 473.85 100.234L473.825 100.184ZM637.5 342.109C641.275 343.909 644.125 347.309 645.425 351.209C646.1 353.309 646.225 396.784 646.1 494.709L645.825 635.309L621.1 597.309L596.225 559.284V457.209C596.225 391.034 596.5 353.934 596.85 352.109C598.025 347.934 600.875 344.434 604.675 342.234C607.775 340.659 608.975 340.534 621.35 340.534C632.925 340.534 634.9 340.659 637.5 342.109Z" fill="#AEAEAE"/>
<defs>
<linearGradient id="paint0_linear_3627_39636" x1="32" y1="-28" x2="912" y2="1000" gradientUnits="userSpaceOnUse">
<stop stop-color="#5178ED"/>
<stop offset="1" stop-color="#2E4487"/>
</linearGradient>
</defs>
</svg>
