<svg width="242" height="42" viewBox="0 0 242 42" fill="none" xmlns="http://www.w3.org/2000/svg">
<rect width="42" height="42" rx="21" fill="url(#paint0_linear_3246_21575)"/>
<path d="M24.1881 18.562C24.5679 18.6433 24.9411 18.7628 25.302 18.92C26.2365 19.3268 27.0592 19.9719 27.6937 20.7952C28.3281 21.6185 28.7539 22.5934 28.9314 23.6294C29.1089 24.6654 29.0324 25.7291 28.7091 26.7216C28.3857 27.7141 27.8259 28.6033 27.0816 29.3067C26.3373 30.0101 25.4327 30.5049 24.4516 30.7452C24.2005 30.8067 23.9465 30.8509 23.6911 30.8781C23.4453 30.9571 23.1831 31 22.911 31H10.7762V30.4007C10.7762 28.2495 12.5201 26.5056 14.6713 26.5056H24.0518C24.1767 26.431 24.2939 26.3425 24.4012 26.2411C24.6532 26.003 24.8428 25.7019 24.9523 25.3659C25.0617 25.0298 25.0876 24.6697 25.0275 24.319C24.9674 23.9682 24.8233 23.6381 24.6085 23.3594C24.3936 23.0807 24.1151 22.8623 23.7987 22.7245C23.5833 22.6307 23.3551 22.5764 23.1242 22.5631L24.1881 18.562Z" fill="white"/>
<path d="M21.055 25.3892L18.9856 24.8526C17.8643 24.5618 17.191 23.4171 17.4818 22.2959L19.2457 15.4944H9.20312V14.5955C9.20312 12.6098 10.8129 11 12.7986 11H24.8812L21.055 25.3892Z" fill="white"/>
<path d="M32.7986 11.8989C32.7986 13.8846 31.1889 15.4944 29.2031 15.4944H25.0038L26.1987 11H32.7986V11.8989Z" fill="white"/>
<path d="M67.7038 14.1019C67.5646 12.7994 66.978 11.7852 65.9439 11.0593C64.9197 10.3335 63.5874 9.97053 61.9467 9.97053C60.7933 9.97053 59.804 10.1445 58.9787 10.4925C58.1534 10.8406 57.522 11.3129 57.0845 11.9095C56.647 12.506 56.4233 13.1872 56.4134 13.9528C56.4134 14.5891 56.5575 15.141 56.8459 15.6083C57.1442 16.0756 57.5469 16.4734 58.054 16.8015C58.5611 17.1197 59.1229 17.3881 59.7393 17.6069C60.3558 17.8256 60.9773 18.0096 61.6037 18.1587L64.4673 18.8747C65.6207 19.1431 66.7294 19.506 67.7933 19.9634C68.8672 20.4208 69.8267 20.9975 70.6719 21.6935C71.527 22.3896 72.2031 23.2298 72.7003 24.2141C73.1974 25.1985 73.446 26.3519 73.446 27.6744C73.446 29.4641 72.9886 31.0401 72.0739 32.4023C71.1591 33.7546 69.8366 34.8136 68.1065 35.5792C66.3864 36.3349 64.3033 36.7127 61.8572 36.7127C59.4808 36.7127 57.4176 36.3448 55.6676 35.609C53.9276 34.8732 52.5653 33.7994 51.581 32.3874C50.6065 30.9755 50.0795 29.2553 50 27.2269H55.4439C55.5234 28.2908 55.8516 29.1758 56.4283 29.8818C57.005 30.5877 57.7557 31.1147 58.6804 31.4627C59.6151 31.8107 60.6591 31.9847 61.8125 31.9847C63.0156 31.9847 64.0696 31.8058 64.9744 31.4478C65.8892 31.0799 66.6051 30.5728 67.1222 29.9265C67.6392 29.2702 67.9027 28.5046 67.9126 27.6296C67.9027 26.8342 67.669 26.1779 67.2116 25.6609C66.7543 25.1339 66.1129 24.6964 65.2876 24.3484C64.4723 23.9904 63.5178 23.6722 62.424 23.3938L58.9489 22.4989C56.4332 21.8526 54.4446 20.8732 52.983 19.5607C51.5313 18.2383 50.8054 16.4833 50.8054 14.2958C50.8054 12.4961 51.2926 10.9201 52.267 9.56783C53.2514 8.21556 54.5888 7.16655 56.2791 6.42081C57.9695 5.66513 59.8835 5.28729 62.0213 5.28729C64.1889 5.28729 66.0881 5.66513 67.7188 6.42081C69.3594 7.16655 70.647 8.20562 71.5817 9.538C72.5163 10.8604 72.9986 12.3818 73.0284 14.1019H67.7038Z" fill="#9D57F6"/>
<path d="M97.2141 5.70491H102.747V25.6609C102.747 27.8484 102.23 29.7724 101.196 31.4329C100.172 33.0934 98.7304 34.391 96.871 35.3256C95.0116 36.2504 92.8391 36.7127 90.3533 36.7127C87.8575 36.7127 85.68 36.2504 83.8206 35.3256C81.9612 34.391 80.5195 33.0934 79.4953 31.4329C78.4712 29.7724 77.9591 27.8484 77.9591 25.6609V5.70491H83.4925V25.1985C83.4925 26.4712 83.7709 27.6048 84.3277 28.5991C84.8945 29.5934 85.6899 30.3739 86.7141 30.9407C87.7382 31.4975 88.9513 31.7759 90.3533 31.7759C91.7552 31.7759 92.9683 31.4975 93.9925 30.9407C95.0266 30.3739 95.822 29.5934 96.3788 28.5991C96.9356 27.6048 97.2141 26.4712 97.2141 25.1985V5.70491Z" fill="#9D57F6"/>
<path d="M108.342 36.2504V5.70491H113.875V18.636H128.029V5.70491H133.578V36.2504H128.029V23.2745H113.875V36.2504H108.342Z" fill="#9D57F6"/>
<path d="M147.831 10.3434V5.70491H172.202V10.3434H162.761V36.2504H157.272V10.3434H147.831Z" fill="#9D57F6"/>
<path d="M183.061 36.6978C180.765 36.6978 178.781 36.2205 177.11 35.266C175.45 34.3015 174.172 32.9393 173.277 31.1793C172.382 29.4095 171.935 27.3264 171.935 24.93C171.935 22.5735 172.382 20.5053 173.277 18.7255C174.182 16.9357 175.445 15.5437 177.066 14.5494C178.686 13.5451 180.591 13.043 182.778 13.043C184.19 13.043 185.522 13.2717 186.775 13.7291C188.038 14.1765 189.152 14.8725 190.116 15.8171C191.091 16.7617 191.856 17.9649 192.413 19.4265C192.97 20.8782 193.248 22.6083 193.248 24.6168V26.2724H174.47V22.6332H188.073C188.063 21.5991 187.839 20.6793 187.402 19.8739C186.964 19.0586 186.353 18.4173 185.567 17.9499C184.792 17.4826 183.887 17.2489 182.853 17.2489C181.749 17.2489 180.779 17.5174 179.944 18.0543C179.109 18.5813 178.458 19.2773 177.99 20.1424C177.533 20.9975 177.299 21.9372 177.289 22.9613V26.1381C177.289 27.4705 177.533 28.614 178.02 29.5685C178.507 30.5131 179.189 31.239 180.064 31.7461C180.939 32.2433 181.963 32.4918 183.136 32.4918C183.921 32.4918 184.632 32.3825 185.269 32.1637C185.905 31.935 186.457 31.6019 186.924 31.1644C187.392 30.7269 187.745 30.185 187.983 29.5387L193.024 30.1055C192.706 31.4379 192.1 32.6012 191.205 33.5955C190.32 34.5799 189.186 35.3455 187.804 35.8924C186.422 36.4293 184.841 36.6978 183.061 36.6978Z" fill="#9D57F6"/>
<path d="M207.389 36.6978C205.102 36.6978 203.138 36.1957 201.497 35.1914C199.867 34.1872 198.609 32.8001 197.724 31.0302C196.849 29.2504 196.411 27.2021 196.411 24.8853C196.411 22.5586 196.859 20.5053 197.754 18.7255C198.649 16.9357 199.911 15.5437 201.542 14.5494C203.183 13.5451 205.122 13.043 207.359 13.043C209.218 13.043 210.864 13.386 212.296 14.0721C213.737 14.7482 214.886 15.7077 215.741 16.9506C216.596 18.1836 217.083 19.6254 217.203 21.2759H212.042C211.833 20.1722 211.336 19.2525 210.551 18.5167C209.775 17.771 208.736 17.3981 207.433 17.3981C206.33 17.3981 205.36 17.6964 204.525 18.293C203.69 18.8796 203.039 19.7248 202.571 20.8285C202.114 21.9322 201.885 23.2546 201.885 24.7958C201.885 26.3569 202.114 27.6992 202.571 28.8228C203.029 29.9364 203.67 30.7965 204.495 31.4031C205.33 31.9997 206.31 32.2979 207.433 32.2979C208.229 32.2979 208.94 32.1488 209.566 31.8505C210.203 31.5423 210.735 31.0998 211.162 30.5231C211.59 29.9464 211.883 29.2454 212.042 28.4201H217.203C217.073 30.0408 216.596 31.4776 215.771 32.7305C214.946 33.9734 213.822 34.9478 212.4 35.6538C210.978 36.3498 209.308 36.6978 207.389 36.6978Z" fill="#9D57F6"/>
<path d="M226.615 22.8271V36.2504H221.216V5.70491H226.496V17.234H226.764C227.301 15.9414 228.132 14.9222 229.255 14.1765C230.389 13.4208 231.83 13.043 233.58 13.043C235.171 13.043 236.558 13.3761 237.742 14.0423C238.925 14.7085 239.84 15.6829 240.486 16.9656C241.142 18.2482 241.47 19.8143 241.47 21.6637V36.2504H236.071V22.4989C236.071 20.9577 235.673 19.7596 234.878 18.9045C234.092 18.0394 232.989 17.6069 231.567 17.6069C230.612 17.6069 229.757 17.8157 229.002 18.2333C228.256 18.641 227.669 19.2326 227.242 20.0082C226.824 20.7837 226.615 21.7234 226.615 22.8271Z" fill="#9D57F6"/>
<defs>
<linearGradient id="paint0_linear_3246_21575" x1="34.1845" y1="-0.114593" x2="-2.12091" y2="41.9149" gradientUnits="userSpaceOnUse">
<stop offset="0.21715" stop-color="#9D57F6"/>
<stop offset="0.553664" stop-color="#B7E3CC"/>
<stop offset="0.809927" stop-color="#C4FFB2"/>
</linearGradient>
</defs>
</svg>
