<svg width="483" height="84" viewBox="0 0 483 84" fill="none" xmlns="http://www.w3.org/2000/svg">
<rect width="84" height="84" rx="42" fill="white"/>
<path d="M48.3761 37.1239C49.1358 37.2865 49.8821 37.5256 50.604 37.8399C52.473 38.6537 54.1183 39.9438 55.3873 41.5904C56.6563 43.2369 57.5077 45.1867 57.8627 47.2588C58.2178 49.3309 58.0649 51.4581 57.4181 53.4431C56.7714 55.4281 55.6518 57.2066 54.1632 58.6134C52.6747 60.0202 50.8653 61.0098 48.9032 61.4904C48.401 61.6134 47.893 61.7018 47.3823 61.7561C46.8905 61.9142 46.3663 62 45.822 62H21.5523V60.8015C21.5523 56.4991 25.0401 53.0112 29.3426 53.0112H48.1037C48.3533 52.862 48.5878 52.6851 48.8024 52.4822C49.3064 52.0059 49.6856 51.4038 49.9045 50.7317C50.1235 50.0597 50.1753 49.3395 50.0551 48.638C49.9349 47.9365 49.6465 47.2763 49.2169 46.7188C48.7873 46.1613 48.2303 45.7246 47.5975 45.4491C47.1667 45.2615 46.7102 45.1529 46.2483 45.1262L48.3761 37.1239Z" fill="url(#paint0_linear_3166_20385)"/>
<path d="M42.11 50.7784L37.9711 49.7051C35.7286 49.1236 34.3821 46.8342 34.9636 44.5917L38.4914 30.9888H18.4062V29.191C18.4062 25.2195 21.6258 22 25.5973 22H49.7623L42.11 50.7784Z" fill="url(#paint1_linear_3166_20385)"/>
<path d="M65.5973 23.7978C65.5973 27.7692 62.3777 30.9888 58.4062 30.9888H50.0075L52.3975 22H65.5973V23.7978Z" fill="url(#paint2_linear_3166_20385)"/>
<path d="M135.408 28.2038C135.129 25.5987 133.956 23.5703 131.888 22.1186C129.839 20.6669 127.175 19.9411 123.893 19.9411C121.587 19.9411 119.608 20.2891 117.957 20.9851C116.307 21.6811 115.044 22.6257 114.169 23.8189C113.294 25.0121 112.847 26.3743 112.827 27.9055C112.827 29.1783 113.115 30.282 113.692 31.2166C114.288 32.1513 115.094 32.9467 116.108 33.603C117.122 34.2393 118.246 34.7763 119.479 35.2138C120.712 35.6513 121.955 36.0192 123.207 36.3175L128.935 37.7493C131.241 38.2862 133.459 39.0121 135.587 39.9268C137.734 40.8416 139.653 41.995 141.344 43.3871C143.054 44.7791 144.406 46.4595 145.401 48.4283C146.395 50.397 146.892 52.7038 146.892 55.3487C146.892 58.9283 145.977 62.0803 144.148 64.8047C142.318 67.5092 139.673 69.6271 136.213 71.1584C132.773 72.6697 128.607 73.4254 123.714 73.4254C118.962 73.4254 114.835 72.6896 111.335 71.218C107.855 69.7464 105.131 67.5987 103.162 64.7749C101.213 61.951 100.159 58.5107 100 54.4538H110.888C111.047 56.5817 111.703 58.3516 112.857 59.7635C114.01 61.1754 115.511 62.2294 117.361 62.9254C119.23 63.6214 121.318 63.9695 123.625 63.9695C126.031 63.9695 128.139 63.6115 129.949 62.8956C131.778 62.1598 133.21 61.1456 134.244 59.853C135.278 58.5405 135.805 57.0092 135.825 55.2592C135.805 53.6683 135.338 52.3558 134.423 51.3217C133.509 50.2678 132.226 49.3928 130.575 48.6967C128.945 47.9808 127.036 47.3445 124.848 46.7876L117.898 44.9979C112.866 43.7053 108.889 41.7465 105.966 39.1215C103.063 36.4766 101.611 32.9666 101.611 28.5916C101.611 24.9922 102.585 21.8402 104.534 19.1357C106.503 16.4311 109.178 14.3331 112.558 12.8416C115.939 11.3303 119.767 10.5746 124.043 10.5746C128.378 10.5746 132.176 11.3303 135.438 12.8416C138.719 14.3331 141.294 16.4112 143.163 19.076C145.033 21.7209 145.997 24.7635 146.057 28.2038H135.408Z" fill="white"/>
<path d="M194.428 11.4098H205.495V51.3217C205.495 55.6967 204.461 59.5447 202.393 62.8658C200.344 66.1868 197.461 68.782 193.742 70.6513C190.023 72.5007 185.678 73.4254 180.707 73.4254C175.715 73.4254 171.36 72.5007 167.641 70.6513C163.922 68.782 161.039 66.1868 158.991 62.8658C156.942 59.5447 155.918 55.6967 155.918 51.3217V11.4098H166.985V50.397C166.985 52.9425 167.542 55.2095 168.655 57.1982C169.789 59.1868 171.38 60.7479 173.428 61.8814C175.476 62.995 177.903 63.5518 180.707 63.5518C183.51 63.5518 185.937 62.995 187.985 61.8814C190.053 60.7479 191.644 59.1868 192.758 57.1982C193.871 55.2095 194.428 52.9425 194.428 50.397V11.4098Z" fill="white"/>
<path d="M216.684 72.5007V11.4098H227.75V37.272H256.059V11.4098H267.155V72.5007H256.059V46.549H227.75V72.5007H216.684Z" fill="white"/>
<path d="M295.663 20.6868V11.4098H344.404V20.6868H325.522V72.5007H314.545V20.6868H295.663Z" fill="white"/>
<path d="M366.123 73.3956C361.529 73.3956 357.562 72.4411 354.221 70.532C350.9 68.603 348.344 65.8786 346.555 62.3587C344.765 58.8189 343.87 54.6527 343.87 49.8601C343.87 45.147 344.765 41.0107 346.555 37.451C348.364 33.8715 350.89 31.0874 354.131 29.0987C357.373 27.0902 361.181 26.0859 365.556 26.0859C368.38 26.0859 371.045 26.5433 373.55 27.4581C376.076 28.353 378.303 29.745 380.232 31.6342C382.181 33.5234 383.712 35.9297 384.826 38.853C385.94 41.7564 386.496 45.2166 386.496 49.2337V52.5447H348.941V45.2663H376.146C376.126 43.1982 375.678 41.3587 374.803 39.7479C373.928 38.1172 372.705 36.8345 371.134 35.8999C369.583 34.9652 367.773 34.4979 365.705 34.4979C363.498 34.4979 361.559 35.0348 359.888 36.1087C358.218 37.1626 356.915 38.5547 355.981 40.2848C355.066 41.995 354.599 43.8743 354.579 45.9226V52.2763C354.579 54.9411 355.066 57.228 356.04 59.1371C357.015 61.0263 358.377 62.478 360.127 63.4922C361.877 64.4865 363.925 64.9837 366.272 64.9837C367.843 64.9837 369.265 64.7649 370.538 64.3274C371.81 63.87 372.914 63.2038 373.849 62.3288C374.783 61.4538 375.489 60.37 375.967 59.0774L386.049 60.2109C385.413 62.8757 384.199 65.2024 382.41 67.1911C380.64 69.1598 378.373 70.6911 375.609 71.7848C372.844 72.8587 369.682 73.3956 366.123 73.3956Z" fill="white"/>
<path d="M414.777 73.3956C410.204 73.3956 406.276 72.3913 402.995 70.3828C399.733 68.3743 397.218 65.6001 395.448 62.0604C393.698 58.5007 392.823 54.4041 392.823 49.7706C392.823 45.1172 393.718 41.0107 395.508 37.451C397.297 33.8715 399.823 31.0874 403.084 29.0987C406.366 27.0902 410.243 26.0859 414.718 26.0859C418.437 26.0859 421.728 26.772 424.591 28.1442C427.475 29.4965 429.772 31.4155 431.482 33.9013C433.192 36.3672 434.167 39.2507 434.405 42.5518H424.084C423.667 40.3445 422.672 38.505 421.101 37.0334C419.55 35.5419 417.472 34.7962 414.867 34.7962C412.66 34.7962 410.721 35.3928 409.05 36.5859C407.38 37.7592 406.077 39.4496 405.143 41.657C404.228 43.8643 403.77 46.5092 403.77 49.5916C403.77 52.7138 404.228 55.3984 405.143 57.6456C406.057 59.8729 407.34 61.593 408.991 62.8061C410.661 63.9993 412.62 64.5959 414.867 64.5959C416.458 64.5959 417.88 64.2976 419.133 63.701C420.405 63.0845 421.469 62.1996 422.324 61.0462C423.179 59.8928 423.766 58.4908 424.084 56.8402H434.405C434.147 60.0817 433.192 62.9553 431.542 65.4609C429.891 67.9467 427.644 69.8956 424.8 71.3075C421.956 72.6996 418.616 73.3956 414.777 73.3956Z" fill="white"/>
<path d="M453.23 45.6541V72.5007H442.432V11.4098H452.992V34.468H453.529C454.603 31.8828 456.263 29.8445 458.51 28.353C460.777 26.8416 463.661 26.0859 467.161 26.0859C470.343 26.0859 473.117 26.7521 475.483 28.0845C477.85 29.4169 479.679 31.3658 480.972 33.9311C482.284 36.4965 482.941 39.6286 482.941 43.3274V72.5007H472.142V44.9979C472.142 41.9155 471.347 39.5192 469.756 37.8089C468.185 36.0788 465.978 35.2138 463.134 35.2138C461.225 35.2138 459.515 35.6314 458.003 36.4666C456.512 37.282 455.338 38.4652 454.483 40.0163C453.648 41.5675 453.23 43.4467 453.23 45.6541Z" fill="white"/>
<defs>
<linearGradient id="paint0_linear_3166_20385" x1="56.8158" y1="21.8909" x2="23.4999" y2="67.3933" gradientUnits="userSpaceOnUse">
<stop offset="0.21715" stop-color="#9D57F6"/>
<stop offset="0.553664" stop-color="#B7E3CC"/>
<stop offset="0.809927" stop-color="#C4FFB2"/>
</linearGradient>
<linearGradient id="paint1_linear_3166_20385" x1="56.8158" y1="21.8909" x2="23.4999" y2="67.3933" gradientUnits="userSpaceOnUse">
<stop offset="0.21715" stop-color="#9D57F6"/>
<stop offset="0.553664" stop-color="#B7E3CC"/>
<stop offset="0.809927" stop-color="#C4FFB2"/>
</linearGradient>
<linearGradient id="paint2_linear_3166_20385" x1="56.8158" y1="21.8909" x2="23.4999" y2="67.3933" gradientUnits="userSpaceOnUse">
<stop offset="0.21715" stop-color="#9D57F6"/>
<stop offset="0.553664" stop-color="#B7E3CC"/>
<stop offset="0.809927" stop-color="#C4FFB2"/>
</linearGradient>
</defs>
</svg>
