<svg width="42" height="42" viewBox="0 0 42 42" fill="none" xmlns="http://www.w3.org/2000/svg">
<rect width="42" height="42" rx="21" fill="url(#paint0_linear_3246_21576)"/>
<path d="M24.1881 18.562C24.5679 18.6433 24.9411 18.7628 25.302 18.92C26.2365 19.3268 27.0592 19.9719 27.6937 20.7952C28.3281 21.6185 28.7539 22.5934 28.9314 23.6294C29.1089 24.6654 29.0324 25.7291 28.7091 26.7216C28.3857 27.7141 27.8259 28.6033 27.0816 29.3067C26.3373 30.0101 25.4327 30.5049 24.4516 30.7452C24.2005 30.8067 23.9465 30.8509 23.6911 30.8781C23.4453 30.9571 23.1831 31 22.911 31H10.7762V30.4007C10.7762 28.2495 12.5201 26.5056 14.6713 26.5056H24.0518C24.1767 26.431 24.2939 26.3425 24.4012 26.2411C24.6532 26.003 24.8428 25.7019 24.9523 25.3659C25.0617 25.0298 25.0876 24.6697 25.0275 24.319C24.9674 23.9682 24.8233 23.6381 24.6085 23.3594C24.3936 23.0807 24.1151 22.8623 23.7987 22.7245C23.5833 22.6307 23.3551 22.5764 23.1242 22.5631L24.1881 18.562Z" fill="white"/>
<path d="M21.055 25.3892L18.9856 24.8526C17.8643 24.5618 17.191 23.4171 17.4818 22.2959L19.2457 15.4944H9.20312V14.5955C9.20312 12.6098 10.8129 11 12.7986 11H24.8812L21.055 25.3892Z" fill="white"/>
<path d="M32.7986 11.8989C32.7986 13.8846 31.1889 15.4944 29.2031 15.4944H25.0038L26.1987 11H32.7986V11.8989Z" fill="white"/>
<defs>
<linearGradient id="paint0_linear_3246_21576" x1="34.1845" y1="-0.114593" x2="-2.12091" y2="41.9149" gradientUnits="userSpaceOnUse">
<stop offset="0.21715" stop-color="#9D57F6"/>
<stop offset="0.553664" stop-color="#B7E3CC"/>
<stop offset="0.809927" stop-color="#C4FFB2"/>
</linearGradient>
</defs>
</svg>
